<svg width="64" height="64" viewBox="0 0 64 64" fill="none" xmlns="http://www.w3.org/2000/svg">
  <!-- Outer circle representing global reach -->
  <circle cx="32" cy="32" r="30" stroke="#2E8B57" stroke-width="2" fill="none"/>
  
  <!-- Africa continent shape (simplified) -->
  <path d="M32 8 C38 8, 42 12, 44 18 C46 24, 44 30, 42 36 C40 42, 36 46, 32 48 C28 46, 24 42, 22 36 C20 30, 22 24, 24 18 C26 12, 30 8, 32 8 Z" fill="#003366"/>
  
  <!-- Plant/leaf symbol in center -->
  <path d="M32 20 C34 22, 36 26, 34 30 C32 34, 28 32, 26 30 C24 26, 26 22, 32 20 Z" fill="#2E8B57"/>
  <path d="M32 20 C30 22, 28 26, 30 30 C32 34, 36 32, 38 30 C40 26, 38 22, 32 20 Z" fill="#FFD700"/>
  
  <!-- Small dots representing research network -->
  <circle cx="20" cy="20" r="2" fill="#FFD700"/>
  <circle cx="44" cy="20" r="2" fill="#FFD700"/>
  <circle cx="20" cy="44" r="2" fill="#FFD700"/>
  <circle cx="44" cy="44" r="2" fill="#FFD700"/>
  
  <!-- Connecting lines -->
  <line x1="20" y1="20" x2="32" y2="32" stroke="#2E8B57" stroke-width="1" opacity="0.5"/>
  <line x1="44" y1="20" x2="32" y2="32" stroke="#2E8B57" stroke-width="1" opacity="0.5"/>
  <line x1="20" y1="44" x2="32" y2="32" stroke="#2E8B57" stroke-width="1" opacity="0.5"/>
  <line x1="44" y1="44" x2="32" y2="32" stroke="#2E8B57" stroke-width="1" opacity="0.5"/>
</svg>